<svg xmlns="http://www.w3.org/2000/svg" xmlns:xlink="http://www.w3.org/1999/xlink" width="230" zoomAndPan="magnify" viewBox="0 0 172.5 35.25" height="47" preserveAspectRatio="xMidYMid meet" version="1.0"><defs><g/><clipPath id="7994782c84"><path d="M 1.550781 0 L 39 0 L 39 34 L 1.550781 34 Z M 1.550781 0 " clip-rule="nonzero"/></clipPath><clipPath id="a293c30768"><path d="M 147.230469 20.195312 L 150.828125 20.195312 L 150.828125 23.792969 L 147.230469 23.792969 Z M 147.230469 20.195312 " clip-rule="nonzero"/></clipPath><clipPath id="78b54b6dd0"><path d="M 149.027344 20.195312 C 148.035156 20.195312 147.230469 21 147.230469 21.996094 C 147.230469 22.988281 148.035156 23.792969 149.027344 23.792969 C 150.023438 23.792969 150.828125 22.988281 150.828125 21.996094 C 150.828125 21 150.023438 20.195312 149.027344 20.195312 Z M 149.027344 20.195312 " clip-rule="nonzero"/></clipPath></defs><g clip-path="url(#7994782c84)"><path fill="#00d8ff" d="M 32.320312 11.429688 C 31.933594 11.296875 31.535156 11.171875 31.117188 11.054688 C 31.1875 10.777344 31.25 10.503906 31.304688 10.238281 C 32.214844 5.832031 31.621094 2.285156 29.585938 1.121094 C 27.636719 0 24.449219 1.167969 21.226562 3.957031 C 20.917969 4.226562 20.605469 4.511719 20.296875 4.808594 C 20.089844 4.613281 19.882812 4.421875 19.675781 4.238281 C 16.300781 1.253906 12.917969 -0.00390625 10.886719 1.167969 C 8.9375 2.289062 8.359375 5.625 9.179688 9.796875 C 9.261719 10.199219 9.351562 10.613281 9.457031 11.03125 C 8.976562 11.164062 8.515625 11.308594 8.074219 11.464844 C 4.117188 12.835938 1.589844 14.992188 1.589844 17.222656 C 1.589844 19.53125 4.300781 21.84375 8.425781 23.246094 C 8.75 23.359375 9.085938 23.464844 9.433594 23.5625 C 9.320312 24.015625 9.222656 24.457031 9.140625 24.890625 C 8.359375 28.992188 8.96875 32.246094 10.914062 33.359375 C 12.917969 34.515625 16.289062 33.328125 19.566406 30.476562 C 19.828125 30.25 20.085938 30.011719 20.347656 29.761719 C 20.6875 30.082031 21.023438 30.390625 21.359375 30.675781 C 24.535156 33.398438 27.671875 34.5 29.613281 33.378906 C 31.617188 32.222656 32.269531 28.726562 31.425781 24.472656 C 31.359375 24.144531 31.285156 23.816406 31.199219 23.476562 C 31.4375 23.40625 31.667969 23.335938 31.894531 23.261719 C 36.179688 21.847656 38.96875 19.5625 38.96875 17.222656 C 38.96875 14.984375 36.359375 12.816406 32.320312 11.429688 Z M 31.394531 21.75 C 31.1875 21.820312 30.980469 21.882812 30.765625 21.945312 C 30.292969 20.457031 29.65625 18.871094 28.871094 17.230469 C 29.617188 15.632812 30.230469 14.066406 30.691406 12.585938 C 31.074219 12.695312 31.445312 12.8125 31.800781 12.933594 C 35.261719 14.121094 37.371094 15.875 37.371094 17.222656 C 37.371094 18.664062 35.09375 20.53125 31.394531 21.75 Z M 29.855469 24.78125 C 30.234375 26.660156 30.285156 28.363281 30.035156 29.691406 C 29.816406 30.886719 29.367188 31.683594 28.8125 32.003906 C 27.636719 32.683594 25.117188 31.800781 22.398438 29.472656 C 22.085938 29.203125 21.773438 28.917969 21.460938 28.617188 C 22.511719 27.472656 23.566406 26.136719 24.59375 24.65625 C 26.398438 24.5 28.105469 24.238281 29.65625 23.878906 C 29.730469 24.1875 29.800781 24.488281 29.855469 24.78125 Z M 14.332031 31.886719 C 13.183594 32.292969 12.265625 32.304688 11.710938 31.984375 C 10.53125 31.308594 10.042969 28.691406 10.710938 25.1875 C 10.789062 24.785156 10.878906 24.375 10.984375 23.953125 C 12.515625 24.289062 14.210938 24.53125 16.019531 24.675781 C 17.054688 26.125 18.136719 27.457031 19.230469 28.625 C 18.992188 28.855469 18.753906 29.070312 18.515625 29.277344 C 17.066406 30.539062 15.613281 31.4375 14.332031 31.886719 Z M 8.941406 21.742188 C 7.117188 21.121094 5.613281 20.316406 4.582031 19.4375 C 3.652344 18.644531 3.1875 17.859375 3.1875 17.222656 C 3.1875 15.871094 5.214844 14.140625 8.601562 12.964844 C 9.011719 12.824219 9.441406 12.6875 9.886719 12.5625 C 10.355469 14.078125 10.96875 15.660156 11.707031 17.261719 C 10.957031 18.886719 10.335938 20.496094 9.863281 22.03125 C 9.546875 21.9375 9.238281 21.84375 8.941406 21.742188 Z M 10.75 9.492188 C 10.046875 5.917969 10.511719 3.222656 11.6875 2.542969 C 12.9375 1.824219 15.703125 2.851562 18.617188 5.429688 C 18.804688 5.59375 18.988281 5.765625 19.179688 5.941406 C 18.09375 7.105469 17.019531 8.425781 15.992188 9.867188 C 14.234375 10.03125 12.550781 10.289062 11.003906 10.640625 C 10.90625 10.25 10.820312 9.867188 10.75 9.492188 Z M 26.871094 13.457031 C 26.503906 12.820312 26.121094 12.199219 25.734375 11.59375 C 26.929688 11.746094 28.070312 11.945312 29.144531 12.1875 C 28.820312 13.214844 28.421875 14.292969 27.949219 15.394531 C 27.609375 14.753906 27.25 14.105469 26.871094 13.457031 Z M 20.296875 7.078125 C 21.035156 7.875 21.769531 8.761719 22.496094 9.722656 C 21.765625 9.6875 21.023438 9.671875 20.277344 9.671875 C 19.539062 9.671875 18.804688 9.6875 18.078125 9.722656 C 18.804688 8.769531 19.546875 7.882812 20.296875 7.078125 Z M 13.679688 13.46875 C 13.308594 14.105469 12.957031 14.75 12.625 15.390625 C 12.160156 14.292969 11.761719 13.214844 11.4375 12.171875 C 12.503906 11.933594 13.640625 11.738281 14.824219 11.59375 C 14.433594 12.203125 14.050781 12.828125 13.679688 13.46875 Z M 14.859375 22.96875 C 13.632812 22.832031 12.480469 22.648438 11.414062 22.417969 C 11.746094 21.355469 12.152344 20.253906 12.625 19.132812 C 12.960938 19.777344 13.3125 20.417969 13.683594 21.058594 L 13.6875 21.058594 C 14.0625 21.710938 14.457031 22.347656 14.859375 22.96875 Z M 20.339844 27.480469 C 19.582031 26.667969 18.828125 25.765625 18.089844 24.800781 C 18.808594 24.828125 19.535156 24.84375 20.277344 24.84375 C 21.039062 24.84375 21.792969 24.824219 22.535156 24.792969 C 21.808594 25.777344 21.070312 26.679688 20.339844 27.480469 Z M 27.960938 19.074219 C 28.460938 20.210938 28.882812 21.304688 29.21875 22.347656 C 28.132812 22.59375 26.964844 22.792969 25.730469 22.941406 C 26.121094 22.328125 26.503906 21.695312 26.878906 21.046875 C 27.261719 20.390625 27.621094 19.730469 27.960938 19.074219 Z M 25.496094 20.253906 C 24.910156 21.261719 24.308594 22.222656 23.703125 23.132812 C 22.59375 23.210938 21.445312 23.253906 20.277344 23.253906 C 19.113281 23.253906 17.984375 23.21875 16.894531 23.144531 C 16.261719 22.226562 15.648438 21.261719 15.066406 20.261719 C 14.488281 19.265625 13.957031 18.261719 13.472656 17.261719 C 13.957031 16.261719 14.488281 15.253906 15.0625 14.261719 C 15.640625 13.265625 16.246094 12.304688 16.875 11.390625 C 17.988281 11.304688 19.125 11.261719 20.277344 11.261719 C 21.4375 11.261719 22.578125 11.304688 23.6875 11.390625 C 24.308594 12.296875 24.910156 13.257812 25.488281 14.253906 C 26.074219 15.261719 26.613281 16.261719 27.101562 17.242188 C 26.617188 18.234375 26.078125 19.246094 25.496094 20.253906 Z M 28.789062 2.496094 C 30.042969 3.214844 30.527344 6.113281 29.742188 9.914062 C 29.691406 10.15625 29.632812 10.40625 29.574219 10.65625 C 28.023438 10.296875 26.339844 10.035156 24.574219 9.867188 C 23.546875 8.414062 22.484375 7.089844 21.414062 5.941406 C 21.703125 5.667969 21.988281 5.40625 22.273438 5.15625 C 25.035156 2.765625 27.613281 1.820312 28.789062 2.496094 Z M 20.277344 13.898438 C 22.121094 13.898438 23.617188 15.386719 23.617188 17.222656 C 23.617188 19.058594 22.121094 20.546875 20.277344 20.546875 C 18.4375 20.546875 16.941406 19.058594 16.941406 17.222656 C 16.941406 15.386719 18.4375 13.898438 20.277344 13.898438 Z M 20.277344 13.898438 " fill-opacity="1" fill-rule="nonzero"/></g><g fill="#01d8ff" fill-opacity="1"><g transform="translate(41.876261, 23.500601)"><g><path d="M 2.15625 0 C 2.007812 0 1.894531 -0.0390625 1.8125 -0.125 C 1.738281 -0.207031 1.703125 -0.316406 1.703125 -0.453125 L 1.703125 -13.234375 C 1.703125 -13.378906 1.738281 -13.492188 1.8125 -13.578125 C 1.894531 -13.660156 2.007812 -13.703125 2.15625 -13.703125 L 6.9375 -13.703125 C 8.40625 -13.703125 9.570312 -13.351562 10.4375 -12.65625 C 11.300781 -11.96875 11.734375 -10.945312 11.734375 -9.59375 C 11.734375 -8.582031 11.476562 -7.757812 10.96875 -7.125 C 10.46875 -6.5 9.785156 -6.0625 8.921875 -5.8125 L 11.9375 -0.609375 C 11.976562 -0.523438 12 -0.453125 12 -0.390625 C 12 -0.285156 11.957031 -0.191406 11.875 -0.109375 C 11.789062 -0.0351562 11.695312 0 11.59375 0 L 10.65625 0 C 10.425781 0 10.257812 -0.0546875 10.15625 -0.171875 C 10.050781 -0.296875 9.960938 -0.414062 9.890625 -0.53125 L 7.046875 -5.5 L 3.625 -5.5 L 3.625 -0.453125 C 3.625 -0.316406 3.582031 -0.207031 3.5 -0.125 C 3.414062 -0.0390625 3.300781 0 3.15625 0 Z M 3.625 -7.171875 L 6.859375 -7.171875 C 7.835938 -7.171875 8.566406 -7.375 9.046875 -7.78125 C 9.523438 -8.195312 9.765625 -8.804688 9.765625 -9.609375 C 9.765625 -10.410156 9.523438 -11.019531 9.046875 -11.4375 C 8.578125 -11.851562 7.847656 -12.0625 6.859375 -12.0625 L 3.625 -12.0625 Z M 3.625 -7.171875 "/></g></g></g><g fill="#01d8ff" fill-opacity="1"><g transform="translate(57.479122, 23.500601)"><g><path d="M 5.515625 0.203125 C 4.160156 0.203125 3.082031 -0.210938 2.28125 -1.046875 C 1.488281 -1.878906 1.054688 -3.007812 0.984375 -4.4375 C 0.960938 -4.613281 0.953125 -4.832031 0.953125 -5.09375 C 0.953125 -5.363281 0.960938 -5.582031 0.984375 -5.75 C 1.035156 -6.675781 1.25 -7.488281 1.625 -8.1875 C 2 -8.882812 2.515625 -9.421875 3.171875 -9.796875 C 3.835938 -10.179688 4.613281 -10.375 5.5 -10.375 C 6.488281 -10.375 7.316406 -10.164062 7.984375 -9.75 C 8.660156 -9.332031 9.175781 -8.738281 9.53125 -7.96875 C 9.882812 -7.195312 10.0625 -6.296875 10.0625 -5.265625 L 10.0625 -4.9375 C 10.0625 -4.789062 10.019531 -4.675781 9.9375 -4.59375 C 9.851562 -4.519531 9.742188 -4.484375 9.609375 -4.484375 L 2.84375 -4.484375 C 2.84375 -4.472656 2.84375 -4.445312 2.84375 -4.40625 C 2.84375 -4.363281 2.84375 -4.332031 2.84375 -4.3125 C 2.863281 -3.769531 2.976562 -3.265625 3.1875 -2.796875 C 3.394531 -2.335938 3.695312 -1.960938 4.09375 -1.671875 C 4.5 -1.390625 4.96875 -1.25 5.5 -1.25 C 5.96875 -1.25 6.359375 -1.320312 6.671875 -1.46875 C 6.984375 -1.613281 7.238281 -1.773438 7.4375 -1.953125 C 7.632812 -2.128906 7.765625 -2.269531 7.828125 -2.375 C 7.941406 -2.53125 8.03125 -2.625 8.09375 -2.65625 C 8.164062 -2.6875 8.273438 -2.703125 8.421875 -2.703125 L 9.375 -2.703125 C 9.488281 -2.703125 9.585938 -2.664062 9.671875 -2.59375 C 9.765625 -2.519531 9.804688 -2.421875 9.796875 -2.296875 C 9.773438 -2.097656 9.664062 -1.859375 9.46875 -1.578125 C 9.28125 -1.296875 9.003906 -1.015625 8.640625 -0.734375 C 8.285156 -0.460938 7.84375 -0.238281 7.3125 -0.0625 C 6.78125 0.113281 6.179688 0.203125 5.515625 0.203125 Z M 2.84375 -5.828125 L 8.203125 -5.828125 L 8.203125 -5.890625 C 8.203125 -6.484375 8.09375 -7.003906 7.875 -7.453125 C 7.664062 -7.910156 7.359375 -8.273438 6.953125 -8.546875 C 6.546875 -8.816406 6.0625 -8.953125 5.5 -8.953125 C 4.9375 -8.953125 4.457031 -8.816406 4.0625 -8.546875 C 3.664062 -8.273438 3.363281 -7.910156 3.15625 -7.453125 C 2.945312 -7.003906 2.84375 -6.484375 2.84375 -5.890625 Z M 2.84375 -5.828125 "/></g></g></g><g fill="#01d8ff" fill-opacity="1"><g transform="translate(71.222299, 23.500601)"><g><path d="M 4.28125 0.203125 C 3.632812 0.203125 3.039062 0.0703125 2.5 -0.1875 C 1.96875 -0.457031 1.535156 -0.8125 1.203125 -1.25 C 0.878906 -1.695312 0.71875 -2.203125 0.71875 -2.765625 C 0.71875 -3.660156 1.082031 -4.375 1.8125 -4.90625 C 2.550781 -5.445312 3.503906 -5.800781 4.671875 -5.96875 L 7.59375 -6.375 L 7.59375 -6.953125 C 7.59375 -7.578125 7.410156 -8.066406 7.046875 -8.421875 C 6.691406 -8.773438 6.113281 -8.953125 5.3125 -8.953125 C 4.726562 -8.953125 4.253906 -8.832031 3.890625 -8.59375 C 3.523438 -8.363281 3.269531 -8.0625 3.125 -7.6875 C 3.050781 -7.5 2.914062 -7.40625 2.71875 -7.40625 L 1.84375 -7.40625 C 1.695312 -7.40625 1.585938 -7.445312 1.515625 -7.53125 C 1.441406 -7.613281 1.40625 -7.710938 1.40625 -7.828125 C 1.40625 -8.023438 1.476562 -8.265625 1.625 -8.546875 C 1.78125 -8.835938 2.015625 -9.117188 2.328125 -9.390625 C 2.640625 -9.671875 3.039062 -9.90625 3.53125 -10.09375 C 4.019531 -10.28125 4.617188 -10.375 5.328125 -10.375 C 6.109375 -10.375 6.765625 -10.269531 7.296875 -10.0625 C 7.835938 -9.863281 8.257812 -9.59375 8.5625 -9.25 C 8.875 -8.914062 9.097656 -8.53125 9.234375 -8.09375 C 9.367188 -7.664062 9.4375 -7.234375 9.4375 -6.796875 L 9.4375 -0.453125 C 9.4375 -0.316406 9.394531 -0.207031 9.3125 -0.125 C 9.226562 -0.0390625 9.117188 0 8.984375 0 L 8.078125 0 C 7.941406 0 7.832031 -0.0390625 7.75 -0.125 C 7.675781 -0.207031 7.640625 -0.316406 7.640625 -0.453125 L 7.640625 -1.296875 C 7.460938 -1.054688 7.226562 -0.820312 6.9375 -0.59375 C 6.65625 -0.363281 6.300781 -0.171875 5.875 -0.015625 C 5.445312 0.128906 4.914062 0.203125 4.28125 0.203125 Z M 4.703125 -1.265625 C 5.234375 -1.265625 5.71875 -1.378906 6.15625 -1.609375 C 6.601562 -1.835938 6.953125 -2.191406 7.203125 -2.671875 C 7.460938 -3.160156 7.59375 -3.769531 7.59375 -4.5 L 7.59375 -5.046875 L 5.328125 -4.71875 C 4.398438 -4.582031 3.703125 -4.363281 3.234375 -4.0625 C 2.765625 -3.757812 2.53125 -3.367188 2.53125 -2.890625 C 2.53125 -2.523438 2.632812 -2.222656 2.84375 -1.984375 C 3.0625 -1.742188 3.335938 -1.5625 3.671875 -1.4375 C 4.003906 -1.320312 4.347656 -1.265625 4.703125 -1.265625 Z M 4.703125 -1.265625 "/></g></g></g><g fill="#01d8ff" fill-opacity="1"><g transform="translate(84.808878, 23.500601)"><g><path d="M 5.5625 0.203125 C 4.632812 0.203125 3.832031 0.0234375 3.15625 -0.328125 C 2.488281 -0.691406 1.972656 -1.207031 1.609375 -1.875 C 1.242188 -2.550781 1.046875 -3.363281 1.015625 -4.3125 C 1.003906 -4.5 1 -4.753906 1 -5.078125 C 1 -5.410156 1.003906 -5.675781 1.015625 -5.875 C 1.046875 -6.8125 1.242188 -7.613281 1.609375 -8.28125 C 1.972656 -8.957031 2.488281 -9.472656 3.15625 -9.828125 C 3.832031 -10.191406 4.632812 -10.375 5.5625 -10.375 C 6.320312 -10.375 6.972656 -10.269531 7.515625 -10.0625 C 8.054688 -9.851562 8.5 -9.582031 8.84375 -9.25 C 9.195312 -8.925781 9.460938 -8.578125 9.640625 -8.203125 C 9.816406 -7.828125 9.910156 -7.46875 9.921875 -7.125 C 9.941406 -7 9.90625 -6.894531 9.8125 -6.8125 C 9.71875 -6.738281 9.601562 -6.703125 9.46875 -6.703125 L 8.53125 -6.703125 C 8.40625 -6.703125 8.304688 -6.726562 8.234375 -6.78125 C 8.171875 -6.84375 8.109375 -6.945312 8.046875 -7.09375 C 7.804688 -7.726562 7.484375 -8.175781 7.078125 -8.4375 C 6.679688 -8.695312 6.179688 -8.828125 5.578125 -8.828125 C 4.796875 -8.828125 4.160156 -8.582031 3.671875 -8.09375 C 3.179688 -7.613281 2.914062 -6.84375 2.875 -5.78125 C 2.863281 -5.3125 2.863281 -4.851562 2.875 -4.40625 C 2.914062 -3.320312 3.179688 -2.539062 3.671875 -2.0625 C 4.160156 -1.582031 4.796875 -1.34375 5.578125 -1.34375 C 6.179688 -1.34375 6.679688 -1.472656 7.078125 -1.734375 C 7.484375 -2.003906 7.804688 -2.457031 8.046875 -3.09375 C 8.109375 -3.238281 8.171875 -3.34375 8.234375 -3.40625 C 8.304688 -3.46875 8.40625 -3.5 8.53125 -3.5 L 9.46875 -3.5 C 9.601562 -3.5 9.71875 -3.457031 9.8125 -3.375 C 9.90625 -3.289062 9.941406 -3.179688 9.921875 -3.046875 C 9.910156 -2.773438 9.851562 -2.492188 9.75 -2.203125 C 9.644531 -1.921875 9.476562 -1.632812 9.25 -1.34375 C 9.019531 -1.050781 8.734375 -0.789062 8.390625 -0.5625 C 8.054688 -0.332031 7.65625 -0.144531 7.1875 0 C 6.71875 0.132812 6.175781 0.203125 5.5625 0.203125 Z M 5.5625 0.203125 "/></g></g></g><g fill="#01d8ff" fill-opacity="1"><g transform="translate(98.395457, 23.500601)"><g><path d="M 5.421875 0 C 4.691406 0 4.097656 -0.140625 3.640625 -0.421875 C 3.179688 -0.703125 2.847656 -1.097656 2.640625 -1.609375 C 2.429688 -2.128906 2.328125 -2.742188 2.328125 -3.453125 L 2.328125 -8.609375 L 0.796875 -8.609375 C 0.671875 -8.609375 0.566406 -8.648438 0.484375 -8.734375 C 0.398438 -8.828125 0.359375 -8.9375 0.359375 -9.0625 L 0.359375 -9.734375 C 0.359375 -9.859375 0.398438 -9.960938 0.484375 -10.046875 C 0.566406 -10.140625 0.671875 -10.1875 0.796875 -10.1875 L 2.328125 -10.1875 L 2.328125 -13.453125 C 2.328125 -13.578125 2.367188 -13.679688 2.453125 -13.765625 C 2.535156 -13.859375 2.644531 -13.90625 2.78125 -13.90625 L 3.703125 -13.90625 C 3.828125 -13.90625 3.929688 -13.859375 4.015625 -13.765625 C 4.109375 -13.679688 4.15625 -13.578125 4.15625 -13.453125 L 4.15625 -10.1875 L 6.578125 -10.1875 C 6.722656 -10.1875 6.832031 -10.140625 6.90625 -10.046875 C 6.988281 -9.960938 7.03125 -9.859375 7.03125 -9.734375 L 7.03125 -9.0625 C 7.03125 -8.9375 6.988281 -8.828125 6.90625 -8.734375 C 6.832031 -8.648438 6.722656 -8.609375 6.578125 -8.609375 L 4.15625 -8.609375 L 4.15625 -3.578125 C 4.15625 -2.960938 4.257812 -2.476562 4.46875 -2.125 C 4.675781 -1.78125 5.046875 -1.609375 5.578125 -1.609375 L 6.78125 -1.609375 C 6.90625 -1.609375 7.007812 -1.5625 7.09375 -1.46875 C 7.175781 -1.382812 7.21875 -1.28125 7.21875 -1.15625 L 7.21875 -0.453125 C 7.21875 -0.316406 7.175781 -0.207031 7.09375 -0.125 C 7.007812 -0.0390625 6.90625 0 6.78125 0 Z M 5.421875 0 "/></g></g></g><g fill="#01d8ff" fill-opacity="1"><g transform="translate(108.830364, 23.500601)"><g/></g></g><g fill="#01d8ff" fill-opacity="1"><g transform="translate(116.407231, 23.500601)"><g><path d="M 5.78125 0.203125 C 5.113281 0.203125 4.484375 0.117188 3.890625 -0.046875 C 3.296875 -0.222656 2.765625 -0.476562 2.296875 -0.8125 C 1.835938 -1.15625 1.46875 -1.585938 1.1875 -2.109375 C 0.914062 -2.628906 0.769531 -3.242188 0.75 -3.953125 C 0.75 -4.066406 0.785156 -4.164062 0.859375 -4.25 C 0.941406 -4.34375 1.046875 -4.390625 1.171875 -4.390625 L 2.234375 -4.390625 C 2.378906 -4.390625 2.492188 -4.34375 2.578125 -4.25 C 2.660156 -4.164062 2.710938 -4.0625 2.734375 -3.9375 C 2.785156 -3.34375 2.957031 -2.867188 3.25 -2.515625 C 3.539062 -2.160156 3.90625 -1.894531 4.34375 -1.71875 C 4.789062 -1.550781 5.28125 -1.46875 5.8125 -1.46875 C 6.800781 -1.46875 7.554688 -1.789062 8.078125 -2.4375 C 8.609375 -3.09375 8.875 -3.960938 8.875 -5.046875 L 8.875 -12 L 1.921875 -12 C 1.785156 -12 1.675781 -12.039062 1.59375 -12.125 C 1.507812 -12.207031 1.46875 -12.316406 1.46875 -12.453125 L 1.46875 -13.25 C 1.46875 -13.382812 1.507812 -13.492188 1.59375 -13.578125 C 1.675781 -13.660156 1.785156 -13.703125 1.921875 -13.703125 L 10.359375 -13.703125 C 10.503906 -13.703125 10.617188 -13.660156 10.703125 -13.578125 C 10.785156 -13.492188 10.828125 -13.378906 10.828125 -13.234375 L 10.828125 -5.015625 C 10.828125 -3.953125 10.625 -3.03125 10.21875 -2.25 C 9.8125 -1.46875 9.234375 -0.863281 8.484375 -0.4375 C 7.742188 -0.0078125 6.84375 0.203125 5.78125 0.203125 Z M 5.78125 0.203125 "/></g></g></g><g fill="#01d8ff" fill-opacity="1"><g transform="translate(131.598997, 23.500601)"><g><path d="M 6.109375 0.203125 C 4.972656 0.203125 4.019531 0.0234375 3.25 -0.328125 C 2.476562 -0.679688 1.882812 -1.132812 1.46875 -1.6875 C 1.0625 -2.25 0.847656 -2.835938 0.828125 -3.453125 C 0.828125 -3.554688 0.867188 -3.648438 0.953125 -3.734375 C 1.035156 -3.816406 1.132812 -3.859375 1.25 -3.859375 L 2.25 -3.859375 C 2.40625 -3.859375 2.519531 -3.816406 2.59375 -3.734375 C 2.675781 -3.660156 2.734375 -3.570312 2.765625 -3.46875 C 2.835938 -3.15625 3 -2.84375 3.25 -2.53125 C 3.5 -2.226562 3.851562 -1.972656 4.3125 -1.765625 C 4.78125 -1.566406 5.378906 -1.46875 6.109375 -1.46875 C 7.234375 -1.46875 8.054688 -1.664062 8.578125 -2.0625 C 9.109375 -2.457031 9.375 -2.988281 9.375 -3.65625 C 9.375 -4.113281 9.234375 -4.484375 8.953125 -4.765625 C 8.671875 -5.046875 8.242188 -5.296875 7.671875 -5.515625 C 7.097656 -5.742188 6.351562 -5.988281 5.4375 -6.25 C 4.488281 -6.519531 3.703125 -6.816406 3.078125 -7.140625 C 2.453125 -7.472656 1.984375 -7.878906 1.671875 -8.359375 C 1.367188 -8.835938 1.21875 -9.453125 1.21875 -10.203125 C 1.21875 -10.898438 1.40625 -11.523438 1.78125 -12.078125 C 2.15625 -12.640625 2.703125 -13.082031 3.421875 -13.40625 C 4.140625 -13.738281 5.003906 -13.90625 6.015625 -13.90625 C 6.816406 -13.90625 7.519531 -13.796875 8.125 -13.578125 C 8.738281 -13.359375 9.25 -13.066406 9.65625 -12.703125 C 10.0625 -12.347656 10.367188 -11.960938 10.578125 -11.546875 C 10.785156 -11.140625 10.894531 -10.742188 10.90625 -10.359375 C 10.90625 -10.265625 10.867188 -10.175781 10.796875 -10.09375 C 10.734375 -10.007812 10.632812 -9.96875 10.5 -9.96875 L 9.453125 -9.96875 C 9.359375 -9.96875 9.265625 -9.992188 9.171875 -10.046875 C 9.078125 -10.097656 9.003906 -10.195312 8.953125 -10.34375 C 8.867188 -10.875 8.566406 -11.320312 8.046875 -11.6875 C 7.523438 -12.050781 6.847656 -12.234375 6.015625 -12.234375 C 5.160156 -12.234375 4.46875 -12.066406 3.9375 -11.734375 C 3.414062 -11.410156 3.15625 -10.90625 3.15625 -10.21875 C 3.15625 -9.769531 3.273438 -9.398438 3.515625 -9.109375 C 3.765625 -8.816406 4.15625 -8.554688 4.6875 -8.328125 C 5.226562 -8.109375 5.929688 -7.878906 6.796875 -7.640625 C 7.835938 -7.347656 8.691406 -7.039062 9.359375 -6.71875 C 10.023438 -6.40625 10.515625 -6.007812 10.828125 -5.53125 C 11.148438 -5.050781 11.3125 -4.441406 11.3125 -3.703125 C 11.3125 -2.878906 11.097656 -2.175781 10.671875 -1.59375 C 10.242188 -1.007812 9.640625 -0.5625 8.859375 -0.25 C 8.078125 0.0507812 7.160156 0.203125 6.109375 0.203125 Z M 6.109375 0.203125 "/></g></g></g><g clip-path="url(#a293c30768)"><g clip-path="url(#78b54b6dd0)"><path fill="#00d8ff" d="M 147.230469 20.195312 L 150.828125 20.195312 L 150.828125 23.792969 L 147.230469 23.792969 Z M 147.230469 20.195312 " fill-opacity="1" fill-rule="nonzero"/></g></g></svg>